<svg xmlns="http://www.w3.org/2000/svg" xmlns:xlink="http://www.w3.org/1999/xlink" width="600" zoomAndPan="magnify" viewBox="0 0 450 449.999984" height="600" preserveAspectRatio="xMidYMid meet" version="1.2"><defs><clipPath id="c604e20ae8"><path d="M 54.441406 38 L 395.691406 38 L 395.691406 412 L 54.441406 412 Z M 54.441406 38 "/></clipPath></defs><g id="181ec0d90e"><g clip-rule="nonzero" clip-path="url(#c604e20ae8)"><path style=" stroke:none;fill-rule:nonzero;fill:#000000;fill-opacity:1;" d="M 365.234375 110.351562 L 254.4375 46.421875 C 236.21875 36.015625 213.914062 36.015625 195.695312 46.421875 L 84.527344 110.351562 C 66.308594 120.386719 55.152344 139.714844 54.78125 160.527344 L 54.78125 290.246094 C 55.152344 310.6875 66.679688 329.644531 84.527344 339.679688 L 195.695312 403.609375 C 213.914062 414.015625 236.21875 414.015625 254.4375 403.609375 L 365.605469 339.679688 C 383.824219 329.273438 395.351562 309.574219 395.351562 288.386719 L 395.351562 160.898438 C 394.980469 139.714844 383.824219 120.757812 365.605469 110.351562 Z M 288.644531 289.5 L 161.117188 289.5 L 161.117188 162.015625 L 288.644531 162.015625 Z M 365.234375 110.351562 L 254.4375 46.421875 C 236.21875 36.015625 213.914062 36.015625 195.695312 46.421875 L 84.527344 110.351562 C 66.308594 120.386719 55.152344 139.714844 54.78125 160.527344 L 54.78125 290.246094 C 55.152344 310.6875 66.679688 329.644531 84.527344 339.679688 L 195.695312 403.609375 C 213.914062 414.015625 236.21875 414.015625 254.4375 403.609375 L 365.605469 339.679688 C 383.824219 329.273438 395.351562 309.574219 395.351562 288.386719 L 395.351562 160.898438 C 394.980469 139.714844 383.824219 120.757812 365.605469 110.351562 Z M 288.644531 289.5 L 161.117188 289.5 L 161.117188 162.015625 L 288.644531 162.015625 Z M 365.234375 110.351562 L 254.4375 46.421875 C 236.21875 36.015625 213.914062 36.015625 195.695312 46.421875 L 84.527344 110.351562 C 66.308594 120.386719 55.152344 139.714844 54.78125 160.527344 L 54.78125 290.246094 C 55.152344 310.6875 66.679688 329.644531 84.527344 339.679688 L 195.695312 403.609375 C 213.914062 414.015625 236.21875 414.015625 254.4375 403.609375 L 365.605469 339.679688 C 383.824219 329.273438 395.351562 309.574219 395.351562 288.386719 L 395.351562 160.898438 C 394.980469 139.714844 383.824219 120.757812 365.605469 110.351562 Z M 288.644531 289.5 L 161.117188 289.5 L 161.117188 162.015625 L 288.644531 162.015625 Z M 288.644531 289.5 "/></g></g></svg>